# xmcd CD database file
#
# Track frame offsets:
#	150
#	20482
#	39631
#	55341
#	72478
#	89457
#	108304
#	129454
#	148406
#	169245
#	190757
#	210502
#	228831
#	247335
#	268025
#
# Disc length: 3860 seconds
#
# Revision: 1
# Processed by: cddbd v1.5.2PL0 Copyright (c) Steve Scherf et al.
# Submitted via: jetAudio 7
#
DISCID=e30f120f
DTITLE=Só Pra Contrariar - SPC
DYEAR=0
DGENRE=Other
TTITLE0=Depois Do Prazer
TTITLE1=Ta Por Fora
TTITLE2=Mineirinho
TTITLE3=Quando e' o Amor
TTITLE4=Minha Metade
TTITLE5=Doido Varrido
TTITLE6=Voce de Volta
TTITLE7=Tem Tudo a Ver
TTITLE8=Artilheiro do Amor
TTITLE9=Amor Verdadeiro
TTITLE10=Misterios do Coração
TTITLE11=Pura Verdade
TTITLE12=Cai na Real
TTITLE13=Menina Mulher
TTITLE14=Nosso Amor
EXTD=
EXTT0=
EXTT1=
EXTT2=
EXTT3=
EXTT4=
EXTT5=
EXTT6=
EXTT7=
EXTT8=
EXTT9=
EXTT10=
EXTT11=
EXTT12=
EXTT13=
EXTT14=
PLAYORDER=
